<svg width="40" height="40" viewBox="0 0 40 40" fill="none" xmlns="http://www.w3.org/2000/svg">
<g clip-path="url(#clip0_301_653)">
<path d="M8.23926 16.7836C8.72728 13.716 12.5618 10.4392 15.5597 10.3695C15.7688 10.3695 15.978 10.2998 16.1174 10.1604C16.2568 10.0906 16.3963 10.0209 16.466 9.81177C17.5118 7.85966 16.954 6.32586 15.2111 5.07094C13.1892 3.60685 9.98221 5.07094 8.37869 6.39558C4.33504 9.74205 0.221668 15.5285 0.430822 21.0364C-0.266359 24.7316 -0.126923 28.7054 0.918849 31.9822C1.61603 34.0737 3.63786 35.1195 5.7294 35.2589C7.82095 35.3985 12.1435 36.0258 14.0259 34.771C15.9083 33.5159 16.0477 31.0758 16.2568 28.9844C16.466 26.6837 17.0935 22.361 15.1414 20.5484C13.1892 18.8054 7.61179 20.6878 8.23926 16.7836Z" fill="#143B19"/>
<path d="M31.2463 16.7836C31.7344 13.716 35.5688 10.4392 38.5668 10.3695C38.7759 10.3695 38.9851 10.2998 39.1245 10.1604C39.264 10.0906 39.4034 10.0209 39.4732 9.81177C40.519 7.85966 39.9612 6.32586 38.2183 5.07094C36.1965 3.60685 32.9894 5.07094 31.3858 6.39558C27.3421 9.74205 23.2288 15.5287 23.4379 21.0364C22.7407 24.7316 22.8802 28.7054 23.9258 31.9822C24.623 34.0737 26.6448 35.1195 28.7365 35.2589C30.828 35.3985 35.1506 36.0258 37.033 34.771C38.9152 33.5159 39.0548 31.0758 39.2639 28.9844C39.4731 26.6837 40.1006 22.361 38.1484 20.5484C36.1963 18.8054 30.5492 20.6878 31.2463 16.7836Z" fill="#143B19"/>
</g>
<defs>
<clipPath id="clip0_301_653">
<rect width="40" height="40" fill="white"/>
</clipPath>
</defs>
</svg>
