<svg
  xmlns="http://www.w3.org/2000/svg"
  xmlns:xlink="http://www.w3.org/1999/xlink"
  style="width: 0; height: 0; visibility: hidden; position: absolute;"
  aria-hidden="true"
><symbol viewBox='0 0 23.4 43.8' id='facebook'>
    <path
      fill="#066F14"
      d="M17.6 0c-6.2 0-9.8 3.3-9.8 10.7v6.5H0V25h7.8v18.8h7.8V25H22l1.5-7.8h-7.8V12c0-2.8 1-4.2 3.6-4.2h4.2V.3a47.9 47.9 0 00-5.8-.3z"
    />
  </symbol><symbol viewBox='0 0 24 24' id='instagram'>
    <path
      fill="#066F14"
      d="M7 0a7 7 0 00-7 7v10a7 7 0 007 7h10a7 7 0 007-7V7a7 7 0 00-7-7zm12 4a1 1 0 11-1 1 1 1 0 011-1zm-7 2a6 6 0 11-6 6 6 6 0 016-6zm0 2a4 4 0 104 4 4 4 0 00-4-4z"
    />
  </symbol><symbol viewBox='0 0 43.3 35.2' id='twitter'>
    <path
      fill="#066F14"
      d="M43.3 4.2a18 18 0 01-5 1.4 9 9 0 003.8-5 17.8 17.8 0 01-5.6 2.2 8.9 8.9 0 00-15.4 6 9 9 0 00.2 2A25.3 25.3 0 013 1.7a8.8 8.8 0 00-1.2 4.5 8.8 8.8 0 004 7.4 8.7 8.7 0 01-4-1.1v.1a8.9 8.9 0 007.1 8.7 9 9 0 01-2.3.3 9.2 9.2 0 01-1.7-.1 8.9 8.9 0 008.3 6.1 17.9 17.9 0 01-11 3.8 16.5 16.5 0 01-2.2 0 25.2 25.2 0 0013.6 4A25.1 25.1 0 0039 9.8v-1a18.5 18.5 0 004.4-4.6z"
    />
  </symbol></svg>
